<?xml version="1.0" standalone="no"?>
<!DOCTYPE svg PUBLIC "-//W3C//DTD SVG 20010904//EN"
 "http://www.w3.org/TR/2001/REC-SVG-20010904/DTD/svg10.dtd">
<svg version="1.0" xmlns="http://www.w3.org/2000/svg"
 width="720.000000pt" height="389.000000pt" viewBox="0 0 720.000000 389.000000"
 preserveAspectRatio="xMidYMid meet">
<metadata>
Created by potrace 1.16, written by Peter Selinger 2001-2019
</metadata>
<g transform="translate(0.000000,389.000000) scale(0.100000,-0.100000)"
fill="#000000" stroke="none">
<path d="M0 1945 l0 -1945 3600 0 3600 0 0 1945 0 1945 -3600 0 -3600 0 0
-1945z m6769 983 c25 -6 63 -19 84 -30 38 -19 117 -93 117 -109 0 -5 10 -31
23 -57 22 -47 22 -48 22 -572 l0 -525 -29 -63 c-32 -70 -86 -124 -155 -156
l-46 -21 -1225 0 c-1182 0 -1226 1 -1260 19 -64 35 -109 77 -142 134 l-33 57
0 555 0 555 23 45 c53 101 132 156 243 168 120 14 2324 14 2378 0z m-5913
-102 c115 -31 199 -97 244 -193 23 -50 38 -137 24 -145 -5 -3 -57 -9 -116 -12
l-108 -7 -23 53 c-42 92 -87 118 -207 118 -85 0 -137 -15 -172 -50 -39 -40
-38 -82 5 -125 34 -34 47 -39 277 -101 214 -59 298 -111 352 -221 30 -61 33
-75 32 -157 0 -77 -4 -100 -26 -147 -52 -113 -130 -175 -263 -209 -87 -22
-245 -27 -336 -10 -175 33 -319 183 -336 351 -6 54 -8 53 139 65 l87 7 10 -39
c39 -140 160 -212 308 -184 113 20 173 74 173 156 0 81 -40 108 -235 159 -284
75 -361 120 -421 249 -18 39 -24 68 -24 126 0 218 182 349 465 335 55 -3 123
-11 151 -19z m702 -213 c1 -112 5 -203 8 -203 3 0 22 13 42 30 67 53 128 74
217 74 133 -1 225 -57 267 -162 22 -55 22 -68 23 -387 l0 -330 -109 -3 c-81
-2 -112 1 -118 10 -4 7 -8 144 -8 303 0 256 -2 294 -18 325 -50 100 -216 86
-275 -24 -21 -39 -22 -56 -27 -326 l-5 -285 -115 0 -115 0 -3 580 c-1 319 0
586 3 593 3 9 33 12 117 10 l113 -3 3 -202z m1227 -103 c174 -28 312 -161 351
-339 40 -179 -23 -365 -160 -471 -213 -163 -556 -97 -671 130 -118 233 -37
528 176 635 93 48 196 63 304 45z m909 0 c198 -32 315 -181 333 -422 l6 -88
-271 0 c-149 0 -277 -3 -286 -6 -36 -14 -11 -108 43 -161 83 -80 224 -54 256
47 7 23 22 24 115 10 138 -22 136 -20 96 -91 -38 -67 -95 -119 -166 -153 -62
-29 -71 -31 -185 -31 -143 0 -205 20 -282 90 -91 81 -133 194 -133 355 0 200
74 343 213 413 85 43 159 54 261 37z"/>
<path d="M4368 2812 l-38 -3 0 -604 0 -605 23 -5 c12 -3 67 -5 122 -3 l100 3
5 290 c3 160 10 299 15 310 40 91 141 130 225 87 58 -29 60 -37 60 -367 0
-221 3 -304 12 -313 16 -16 220 -16 236 0 9 9 12 90 12 303 0 301 -8 392 -39
454 -71 138 -258 184 -426 105 -30 -14 -59 -32 -66 -40 -6 -8 -15 -14 -20 -14
-5 0 -9 87 -9 194 0 140 -3 197 -12 202 -12 8 -136 11 -200 6z"/>
<path d="M6040 2810 c-11 -7 -16 -1192 -5 -1210 3 -6 53 -10 110 -10 113 0
115 1 115 66 l0 35 43 -35 c143 -117 331 -109 461 18 89 88 126 199 127 376 1
162 -36 265 -123 353 -54 54 -106 79 -193 95 -93 16 -206 -13 -262 -67 -12
-11 -25 -21 -28 -21 -3 0 -5 87 -5 194 0 113 -4 197 -10 201 -13 8 -217 13
-230 5z m509 -539 c42 -30 69 -86 80 -165 16 -115 -7 -226 -60 -282 -27 -29
-99 -48 -145 -40 -51 10 -118 81 -133 142 -14 53 -16 149 -6 218 9 60 58 126
105 143 49 18 121 11 159 -16z"/>
<path d="M5175 2458 c-3 -13 -4 -165 -2 -338 3 -342 6 -358 62 -441 42 -60
137 -103 229 -103 90 0 172 24 230 69 26 19 48 35 51 35 2 0 5 -19 7 -42 l3
-43 106 -3 c81 -2 109 1 118 11 8 11 11 129 9 443 l-3 429 -125 0 -125 0 -5
-295 c-4 -258 -7 -299 -22 -320 -42 -60 -64 -75 -123 -83 -57 -9 -105 11 -130
53 -19 33 -20 56 -25 340 l-5 305 -122 3 c-120 3 -123 2 -128 -20z"/>
<path d="M2636 2315 c-47 -17 -91 -57 -119 -110 -18 -33 -22 -57 -22 -140 0
-88 3 -106 26 -150 15 -30 42 -62 68 -80 37 -26 51 -30 110 -30 90 0 137 30
177 112 25 50 29 70 29 143 0 105 -21 165 -75 214 -59 53 -123 67 -194 41z"/>
<path d="M3574 2329 c-40 -12 -90 -67 -105 -118 -21 -71 -20 -72 163 -69 l163
3 -3 34 c-4 57 -42 113 -92 139 -47 23 -75 26 -126 11z"/>
</g>
</svg>
